HIERARCHY
ROOT pelvis
{
  OFFSET 0 100 0
  CHANNELS 6 Xposition Yposition Zposition Zrotation Xrotation Yrotation
  JOINT pelvis_right_femur
  {
    OFFSET -10.78128 -3.44521 -0.5502486
    CHANNELS 3 Zrotation Xrotation Yrotation
    JOINT right_femur_tibia
    {
      OFFSET -0.8047443 -44.0398 -0.1307829
      CHANNELS 3 Zrotation Xrotation Yrotation
      JOINT right_tibia_foot
      {
        OFFSET 3.006224 -47.83518 -5
        CHANNELS 3 Zrotation Xrotation Yrotation
        End Site
        {
          OFFSET 0 -5 15
        }
      }
    }
  }
  JOINT pelvis_left_femur
  {
    OFFSET 10.78128 -3.44521 -0.5502486
    CHANNELS 3 Zrotation Xrotation Yrotation
    JOINT left_femur_tibia
    {
      OFFSET 0.8047443 -44.0398 -0.1307829
      CHANNELS 3 Zrotation Xrotation Yrotation
      JOINT left_tibia_foot
      {
        OFFSET -4.370144 -48.10324 -4.275266
        CHANNELS 3 Zrotation Xrotation Yrotation
        End Site
        {
          OFFSET 0 -5 15
        }
      }
    }
  }
  JOINT pelvis_spine1
  {
    OFFSET 0 6.468898 -3.129235
    CHANNELS 3 Zrotation Xrotation Yrotation
    JOINT spine1
    {
      OFFSET 0 23.15396 4.99043
      CHANNELS 3 Zrotation Xrotation Yrotation
      JOINT spine2
      {
        OFFSET 0 20.79997 -5.064912
        CHANNELS 3 Zrotation Xrotation Yrotation
        JOINT neck
        {
          OFFSET 0 14.38658 9.616178
          CHANNELS 3 Zrotation Xrotation Yrotation
          End Site
          {
            OFFSET 0 20 0
          }
        }
      }
      JOINT right_manubrium
      {
        OFFSET -5.722621 16.35077 3.967754
        CHANNELS 3 Zrotation Xrotation Yrotation
        JOINT right_clavicle
        {
          OFFSET -13.16364 1.694482 -4.693211
          CHANNELS 3 Zrotation Xrotation Yrotation
          JOINT right_humerus
          {
            OFFSET -28.5034 -0.3100689 -2.792744
            CHANNELS 3 Zrotation Xrotation Yrotation
            JOINT right_radius
            {
              OFFSET -25.15693 0.02248979 -1.271978
              CHANNELS 3 Zrotation Xrotation Yrotation
              End Site
              {
                OFFSET -15 0 0
              }
            }
          }
        }
      }
      JOINT left_manubrium
      {
        OFFSET 5.722621 16.35077 3.967754
        CHANNELS 3 Zrotation Xrotation Yrotation
        JOINT left_clavicle
        {
          OFFSET 13.16364 1.694482 -4.693211
          CHANNELS 3 Zrotation Xrotation Yrotation
          JOINT left_humerus
          {
            OFFSET 29.39168 -1.063119 -2.237045
            CHANNELS 3 Zrotation Xrotation Yrotation
            JOINT left_radius
            {
              OFFSET 24.59957 -0.9528479 0.9047498
              CHANNELS 3 Zrotation Xrotation Yrotation
              End Site
              {
                OFFSET 15 -0 -0
              }
            }
          }
        }
      }
    }
  }
}
MOTION
Frames: 19
Frame Time: 0.0416666666667
0 103.5113 0 1.800823 -2.305581 0.07162027 1.774248 -10.77107 7.001248 -0 35.54102 -0 -5.336504 -16.51577 -4.18205 -7.04128 12.66914 -24.67777 -0 5.754367 -0 -0.2598059 -20.15234 22.894 -4.067678 -3.898151 3.712321 2.263962 8.242319 -7.830696 0.4759184 23.65495 7.806449 3.833428 -22.63698 8.287923 6.499859 -19.39322 11.4085 86.42958 35.34435 -21.9376 -0 0 15.63266 -9.453278 8.848436 5.699556 4.103386 -18.59218 -3.53799 -100.6304 40.08965 28.82274 0 0 -19.22325 -11.83006 16.82723 27.38847
0.2030164 104.0573 1.328596 1.602292 -2.135843 0.08809716 1.990456 -12.06137 6.95143 -0 36.04685 -0 -5.715658 -15.79524 -4.24077 -6.938043 12.70776 -24.14712 -0 5.55955 -0 0.2358428 -20.0975 22.75678 -4.030313 -3.704394 3.577324 2.360765 8.380916 -8.009536 0.4406358 23.5086 7.768155 3.791688 -22.86302 8.233 6.476114 -19.36087 11.46366 86.61959 35.45293 -21.97817 -0 0 15.33364 -9.441665 8.707365 5.85972 4.093507 -18.88451 -3.510917 -99.62088 39.44699 27.88099 0 0 -19.51638 -10.71595 16.73025 26.25959
0.3957358 104.4862 2.812551 0.8255102 -1.444692 0.0932257 2.882887 -17.12042 6.545653 -0 34.35308 -0 -6.340171 -13.28546 -4.182148 -6.398103 12.67523 -22.88426 -0 5.307315 -0 -0.04424645 -21.28466 21.53543 -3.583757 -2.779793 3.357717 2.534827 8.49651 -8.338708 0.5367158 22.983 7.874419 3.937312 -23.60362 8.330308 6.242904 -19.28623 11.50069 86.96052 35.26718 -22.22055 -0 0 15.10924 -9.830127 8.878172 6.166936 4.40098 -19.7002 -3.478948 -98.28487 38.77647 26.60204 0 0 -20.73502 -9.548666 16.41215 25.53233
0.5803036 104.7249 4.439614 0.2723051 -0.8129115 0.09505811 3.654369 -21.05717 6.438202 -0 31.37289 -0 -6.356462 -11.77267 -4.090458 -5.957032 12.71023 -22.40115 -0 5.441219 -0 -0.8731095 -22.72382 20.57892 -3.184242 -2.03891 3.353798 2.601163 8.31839 -8.378166 0.7928066 22.56979 7.983251 4.130619 -24.12992 8.61915 6.022842 -19.16155 11.40566 86.95001 34.92034 -22.29845 -0 0 15.343 -9.916133 9.202279 6.049694 4.84902 -20.06628 -3.319235 -98.12114 38.76054 26.31224 0 0 -21.47122 -9.382244 16.31771 25.75512
0.7419787 104.7653 6.304503 -0.2371581 -0.08265111 0.1055799 4.432929 -25.12571 6.338701 -0 27.71883 -0 -6.319181 -10.06741 -4.004835 -5.508713 12.94588 -21.90477 -0 5.831918 -0 -1.917172 -24.29783 19.48076 -2.822674 -1.285361 3.32879 2.656248 8.019658 -8.367483 1.101492 22.14795 8.085692 4.349893 -24.62715 8.949874 5.794461 -18.8667 11.25002 86.93615 34.62984 -22.39596 -0 0 15.40852 -9.948529 9.588989 5.842773 5.37297 -20.39518 -3.092613 -97.80583 38.73852 25.75184 0 0 -22.27123 -9.131782 16.25912 25.81862
0.8652795 104.6344 8.509574 -0.6565416 0.7523807 0.161559 5.151001 -28.89492 6.230491 -0 23.77029 -0 -6.270268 -8.160868 -3.906118 -5.095834 13.37425 -21.41518 -0 6.552844 -0 -3.141634 -25.77107 18.26654 -2.529354 -0.6105119 3.263107 2.701503 7.626173 -8.32164 1.404166 21.73141 8.20592 4.600407 -25.08967 9.281058 5.635938 -18.39488 11.06406 86.93197 34.5758 -22.53877 -0 0 15.21463 -9.95282 10.0546 5.607615 5.906829 -20.65637 -2.816468 -97.3397 38.66689 24.97242 0 0 -23.05314 -8.79232 16.21657 25.68672
0.9347472 104.3841 11.19342 -0.9931566 1.674327 0.3206726 5.756337 -32.1721 6.013962 -0 19.95361 -0 -6.296089 -6.028854 -3.804623 -4.72365 14.03388 -20.76274 -0 7.621353 -0 -4.49068 -26.86343 16.83085 -2.293205 -0.0451125 3.091075 2.753197 7.167629 -8.281203 1.639377 21.33171 8.327769 4.828711 -25.50134 9.549278 5.542273 -17.71786 10.86743 87.01559 34.77941 -22.73159 -0 0 14.60085 -9.957309 10.52827 5.44717 6.377603 -20.85638 -2.516956 -96.43894 38.34498 23.72419 0 0 -23.84435 -8.112369 16.08543 25.0717
0.9411865 104.0882 14.50066 -1.267515 2.622286 0.6429506 6.200744 -34.53886 5.618236 -0 16.73468 -0 -6.414952 -3.9217 -3.708429 -4.391586 14.88652 -19.86739 -0 9.098204 -0 -5.950281 -27.19921 15.11387 -2.059049 0.3513716 2.776877 2.81978 6.67555 -8.269164 1.740686 20.97738 8.438867 4.969126 -25.82982 9.697969 5.508672 -16.86424 10.68819 87.22222 35.20131 -22.95331 -0 0 13.53839 -9.979465 10.95135 5.448224 6.690641 -20.9431 -2.236345 -95.06965 37.65192 22.03262 0 0 -24.57172 -7.030285 15.75984 23.90967
0.8861533 103.8418 18.54882 -1.547395 3.469986 1.162455 6.50915 -35.55335 5.027712 -0 14.62543 -0 -6.626803 -2.294954 -3.645579 -4.063234 15.80615 -18.66663 -0 11.17305 -0 -7.482321 -26.32893 13.11448 -1.71401 0.533516 2.305704 2.90954 6.207667 -8.307296 1.651621 20.71057 8.511 4.937046 -26.03329 9.672934 5.504363 -15.91862 10.56587 87.56685 35.68933 -23.15813 -0 0 12.10527 -10.04266 11.26285 5.679975 6.732384 -20.85589 -2.038346 -93.35029 36.50867 20.08946 0 0 -25.09985 -5.585511 15.15435 22.27549
0.7859006 103.7681 23.3723 -1.941761 4.021517 1.840227 6.836779 -34.89656 4.356224 -0 14.04827 -0 -6.925211 -1.667757 -3.653291 -3.657677 16.49794 -17.17002 -0 14.33065 -0 -9.002445 -23.86644 10.97792 -1.104255 0.499126 1.727445 3.02315 5.874113 -8.40748 1.358017 20.57413 8.513583 4.679782 -26.08311 9.445318 5.497869 -15.04123 10.55857 88.01437 36.0208 -23.28763 -0 0 10.53494 -10.21311 11.46396 6.161766 6.401005 -20.56828 -2.002873 -91.63347 34.98084 18.33867 0 0 -25.22078 -4.011264 14.29718 20.50095
0.670538 104.0243 28.87406 -2.525193 4.044295 2.51625 7.386136 -32.567 3.815678 -0 15.05671 -0 -7.309937 -2.300499 -3.748543 -3.092862 16.4783 -15.48433 -0 19.44824 -0 -10.37231 -19.76163 9.034725 -0.1351387 0.3256116 1.202711 3.142196 5.834138 -8.550261 0.929966 20.59567 8.425049 4.239624 -25.9705 9.035769 5.484859 -14.42439 10.7248 88.47178 36.00972 -23.29422 -0 0 9.159822 -10.62088 11.66011 6.830391 5.675114 -20.14779 -2.188512 -90.38048 33.31797 17.31225 0 0 -24.7436 -2.672295 13.3981 19.08466
0.5797046 104.7817 34.82803 -3.185452 3.388535 2.918552 8.130269 -28.86783 3.543002 -0 17.01134 -0 -7.733601 -3.881015 -3.868141 -2.422418 15.1457 -13.8009 -0 27.47094 -0 -11.42831 -14.59486 7.719216 1.044916 0.1660225 1.021709 3.2179 6.226274 -8.651009 0.5247552 20.77057 8.249629 3.787915 -25.69222 8.520332 5.514662 -14.19303 11.07936 88.79858 35.68442 -23.15435 -0 0 8.259083 -11.41428 12.02369 7.553247 4.69376 -19.76655 -2.564157 -89.90073 31.82945 17.30561 0 0 -23.68441 -1.854416 12.73605 18.38157
0.5568722 106.1432 40.95645 -3.540708 2.144916 2.809811 8.617161 -24.12307 3.445861 -0 18.57091 -0 -7.995254 -5.616826 -3.832186 -1.951293 11.9896 -12.30332 -0 38.40218 -0 -11.99913 -9.573074 7.348887 1.942837 0.1753839 1.510643 3.179925 7.038762 -8.555994 0.3018819 21.05689 8.021753 3.54583 -25.22497 7.993131 5.660833 -14.32018 11.5536 88.82952 35.35844 -22.82121 -0 0 7.906709 -12.62221 12.62797 8.221999 3.762669 -19.60582 -2.961712 -90.0898 30.61299 18.08763 0 0 -22.43838 -1.50493 12.33888 18.22787
0.631523 108.0323 47.03826 -3.151942 0.645393 2.208457 8.270615 -18.50798 3.300729 -0 18.38238 -0 -7.781174 -6.81052 -3.440533 -2.04626 6.903637 -11.05504 -0 50.25514 -0 -11.92117 -5.985258 7.926104 1.980231 0.3995731 2.794162 2.97665 8.054341 -8.128862 0.295586 21.38626 7.787514 3.610409 -24.53792 7.505049 5.928082 -14.68194 12.02552 88.40658 35.39513 -22.14435 -0 0 8.01129 -14.07707 13.30925 8.854583 3.208308 -19.71263 -3.154777 -90.44806 29.46539 19.00872 0 0 -21.63722 -1.237217 11.84329 17.9867
0.789236 110.1676 52.9625 -1.966464 -0.7819517 1.401417 7.048791 -12.32627 3.04679 -0 16.15915 -0 -6.973459 -7.337845 -2.707539 -2.658103 0.4130922 -9.939964 -0 59.50743 -0 -11.15115 -4.413941 9.201179 1.04474 0.746733 4.581522 2.61799 9.00072 -7.390461 0.3965131 21.68715 7.567933 3.858893 -23.64323 7.045707 6.188862 -15.221 12.41694 87.4433 35.78669 -20.89537 -0 0 8.531261 -15.58373 13.79242 9.567919 3.148662 -19.9702 -3.069054 -90.50959 28.14527 19.55044 0 0 -21.61572 -0.7342997 10.87483 17.17583
0.9774515 112.1745 58.69336 -0.4912941 -2.020814 0.6793061 5.60713 -6.243529 2.853257 -0 12.95072 -0 -5.835548 -7.584366 -1.931725 -3.155894 -6.515787 -8.681304 -0 63.24465 -0 -9.89804 -4.454824 10.92623 -0.3029539 1.107156 6.280629 2.164892 9.754235 -6.533909 0.4832332 21.90922 7.341162 4.056724 -22.61446 6.601103 6.242746 -16.00806 12.73778 85.98586 36.05023 -18.92914 -0 0 9.600863 -17.14972 13.96909 10.44599 3.416762 -20.20486 -2.881627 -90.27439 26.65255 19.76171 0 0 -22.02433 -0.09882482 9.5222 15.9713
1.158128 113.7286 64.22108 0.5952039 -3.082641 0.1309676 4.680935 -0.9253522 2.854758 -0 10.12922 -0 -4.74445 -8.130076 -1.419045 -2.802439 -13.02273 -7.01211 -0 60.76608 -0 -8.550017 -5.208468 12.9146 -1.30258 1.447045 7.417392 1.676829 10.31865 -5.762132 0.5270605 22.03206 7.077331 4.041343 -21.5614 6.211599 5.947149 -17.12536 13.01094 84.20006 35.65004 -16.30239 -0 0 11.41978 -18.92181 13.94767 11.47828 3.739408 -20.26496 -2.826349 -90.10769 25.21795 20.09166 0 0 -22.12218 0.3237741 8.257887 14.9463
1.340595 114.6352 69.57644 0.9460542 -3.903526 -0.3310255 4.491359 3.437108 2.989069 -0 8.326903 -0 -3.853575 -9.452346 -1.202906 -1.355675 -18.66578 -4.932896 -0 53.31811 -0 -7.45438 -5.937608 14.90939 -1.576256 1.736365 7.915983 1.192357 10.66774 -5.156801 0.5615749 22.05272 6.788614 3.799115 -20.61273 5.952958 5.301198 -18.53042 13.19239 82.29677 34.47436 -13.25476 -0 0 14.02494 -20.93986 13.86862 12.61164 3.950943 -20.03232 -2.947578 -90.31628 24.09857 20.91938 0 0 -21.41114 0.3175542 7.463731 14.51678
1.568084 114.8538 74.8735 0.6741346 -4.317201 -0.837941 4.717661 7.085286 3.101705 -0 7.41034 -0 -3.068854 -11.6241 -1.074412 0.7634289 -23.28332 -2.797046 -0 43.11809 -0 -6.756231 -6.321976 16.59151 -1.26383 1.872129 8.022677 0.7439262 10.72602 -4.700872 0.6180473 21.97033 6.530348 3.429964 -19.89208 5.87536 4.440629 -20.02538 13.19266 80.46341 32.8953 -10.13686 -0 0 17.13756 -23.05096 13.78792 13.79277 4.03714 -19.46479 -3.089702 -90.90909 23.40154 22.27446 0 0 -19.94097 -0.0728985 7.167236 14.70758
